<svg width="40" height="38" viewBox="0 0 40 38" fill="none" xmlns="http://www.w3.org/2000/svg">
<path d="M33.4061 18.4478C32.7565 18.4478 32.2533 18.9486 32.2533 19.6014V35.3599H24.0785V28.9251C24.0785 28.3214 23.5754 27.7937 22.9672 27.7937H17.0565C16.4063 27.7937 15.8826 28.3213 15.8826 28.9251V35.3599H7.72835V20.1246C7.72835 19.5164 7.22573 19.0112 6.57554 19.0112C5.96782 19.0112 5.46475 19.5164 5.46475 20.1246V36.5136C5.46475 37.1218 5.96782 37.6271 6.57554 37.6271H17.0565C17.6642 37.6271 18.1672 37.1218 18.1672 36.5136V30.0787H21.8144V36.5136C21.8144 37.1218 22.3174 37.6271 22.9672 37.6271H33.4061C34.0139 37.6271 34.5169 37.1218 34.5169 36.5136V19.6015C34.5169 18.9487 34.0139 18.4478 33.4061 18.4478Z" fill="white"/>
<path d="M39.6734 19.3465L30.5764 10.2107V3.98156C30.5764 3.33313 30.0523 2.83234 29.4025 2.83234C28.7944 2.83234 28.2914 3.33319 28.2914 3.98156V7.92567L20.7873 0.377309C20.5574 0.14476 20.2842 0.0195312 20.0119 0.0195312C19.6975 0.0195312 19.4248 0.149204 19.1944 0.377309L0.350384 19.2213C-0.101708 19.6729 -0.131642 20.3974 0.350384 20.8133C0.769404 21.2962 1.49117 21.2649 1.94326 20.8133L20.0119 2.78757L38.0385 20.9832C38.2263 21.171 38.4995 21.2784 38.8559 21.2784C39.1703 21.2784 39.4426 21.171 39.6734 20.9832C40.0928 20.5629 40.1241 19.8027 39.6734 19.3465Z" fill="white"/>
</svg>
