<svg width="207" height="27" viewBox="0 0 207 27" fill="none" xmlns="http://www.w3.org/2000/svg">
<mask id="mask0" mask-type="alpha" maskUnits="userSpaceOnUse" x="184" y="2" width="23" height="25">
<path fill-rule="evenodd" clip-rule="evenodd" d="M184.067 2.18506H206.844V27H184.067V2.18506Z" fill="white"/>
</mask>
<g mask="url(#mask0)">
<path fill-rule="evenodd" clip-rule="evenodd" d="M200.384 24.8482C201.548 24.4406 202.503 23.6853 203.366 22.7895C203.419 22.7345 203.423 22.6264 203.438 22.5408C203.659 21.2919 203.901 20.0456 204.077 18.7903C204.109 18.564 203.923 18.1443 203.745 18.083C203.341 17.9432 203.208 18.2966 203.146 18.6532C202.96 19.7301 202.789 20.8111 202.554 21.8774C202.487 22.1832 202.279 22.5156 202.037 22.7132C201.431 23.208 200.758 23.6185 200.136 24.0948C199.992 24.2048 199.944 24.4424 199.852 24.6211C200.001 24.6845 200.15 24.7482 200.384 24.8482ZM197.732 9.1398C196.86 9.1398 196.1 9.1598 195.343 9.12374C195.184 9.11585 194.961 8.93559 194.891 8.77901C194.459 7.80295 193.703 7.22058 192.717 6.93637C191.214 6.50295 189.748 6.59558 188.363 7.38611C187.288 8.00006 186.809 8.9698 186.97 10.188C187.095 11.1316 187.845 11.8951 189.019 12.1295C190.126 12.3511 191.255 12.4648 192.371 12.648C194.515 12.9998 196.562 13.5451 197.796 15.6793C198.777 14.5553 199.906 15.3961 201.024 15.3364C201.252 14.063 201.481 12.7961 201.705 11.5285C202.123 9.1548 202.529 6.77874 202.961 4.40769C203.039 3.98058 203.059 3.6998 202.571 3.4769C202.119 3.27058 201.914 2.81085 202.02 2.18506C203.454 2.43795 204.857 2.68558 206.331 2.94532C206.207 3.57348 205.866 3.91032 205.298 3.97874C204.905 4.02611 204.765 4.20243 204.697 4.59348C204.077 8.19822 203.433 11.7987 202.797 15.4008C202.786 15.4637 202.796 15.5303 202.796 15.7085C203.238 15.7916 203.694 15.8843 204.153 15.963C205.393 16.1753 205.769 16.7164 205.55 17.9793C205.268 19.5977 204.961 21.2122 204.72 22.8366C204.582 23.7653 203.931 24.2574 203.199 24.8606C204.612 25.2558 205.941 25.6798 206.844 27.0001H190.675C193.104 25.9711 195.633 25.3324 198.222 24.9251C197.617 23.9093 197.045 22.9487 196.511 22.0524C195.729 22.4574 194.872 23.0482 193.925 23.3658C190.953 24.3622 188.162 23.9798 185.735 21.8819C184.632 20.9287 184.054 19.6814 184.067 18.1208H186.774C187.06 19.9103 188.321 20.6593 189.915 20.983C191.543 21.3137 193.108 21.1006 194.408 19.9911C194.846 19.618 195.199 19.0427 195.381 18.4895C195.754 17.358 195.285 16.2751 194.161 15.9416C192.839 15.5498 191.437 15.4369 190.082 15.1445C189.004 14.9116 187.885 14.7256 186.886 14.284C183.737 12.8911 183.347 8.62164 185.555 6.19006C188.071 3.41848 193.267 3.18716 196.023 5.70874C196.979 6.58295 197.495 7.68348 197.732 9.1398Z" fill="#E84C57"/>
</g>
<path fill-rule="evenodd" clip-rule="evenodd" d="M129.523 6.8058C125.782 6.78248 122.694 10.0046 122.669 13.9566C122.643 17.8916 125.707 21.1644 129.447 21.198C133.193 21.2315 136.304 18.0096 136.33 14.0705C136.355 10.0695 133.32 6.8294 129.523 6.8058ZM129.482 4.00003C134.703 3.98636 139 8.50026 139 14C139 19.4799 134.74 23.9863 129.547 24C124.288 24.0136 120.022 19.5601 120 14.0349C119.979 8.5319 124.248 4.0137 129.482 4.00003Z" fill="#E84C57"/>
<path fill-rule="evenodd" clip-rule="evenodd" d="M75.8694 12.0838H76.675C79.1542 12.0838 81.6337 12.1031 84.1121 12.07C84.7222 12.062 84.8874 12.2521 84.8493 12.8041C84.8037 13.461 84.8386 14.1234 84.8386 14.8542H75.9222V20.2762H85V23H73V4H84.981V6.71759H84.1982C81.6744 6.71759 79.1504 6.73817 76.6272 6.70345C75.9917 6.69444 75.8415 6.89302 75.8565 7.46792C75.8951 8.9642 75.8694 10.4623 75.8694 12.0838Z" fill="#231F20"/>
<path fill-rule="evenodd" clip-rule="evenodd" d="M117.992 23H115.158V14.7654C114.86 14.7521 114.646 14.7344 114.431 14.7342C112.111 14.7321 109.791 14.7521 107.472 14.7198C106.876 14.7114 106.729 14.8923 106.736 15.4461C106.767 17.7063 106.749 19.9667 106.749 22.2272V22.9754H104V4.06406H106.73V12.0077H115.12C115.132 11.7702 115.152 11.5438 115.153 11.3173C115.155 9.09957 115.167 6.88161 115.145 4.66417C115.14 4.17538 115.263 3.96221 115.808 4.00546C116.356 4.04896 116.912 4.03259 117.464 4.00955C117.868 3.99266 118.03 4.14211 117.995 4.52982C117.974 4.76244 117.992 4.99864 117.992 5.23305V22.186V23Z" fill="#E84C57"/>
<path fill-rule="evenodd" clip-rule="evenodd" d="M168.722 12.1615V14.88H167.915C165.468 14.8803 163.021 14.8962 160.574 14.8685C159.997 14.8619 159.807 15.0179 159.824 15.5883C159.864 16.9743 159.856 18.3624 159.827 19.7492C159.817 20.2359 159.993 20.3647 160.476 20.3611C163.055 20.3419 165.635 20.3522 168.214 20.3522H168.961V23H157.047C157.035 22.7838 157.013 22.5597 157.013 22.3358C157.011 16.4674 157.019 10.5988 157 4.73037C156.998 4.18425 157.124 3.99547 157.727 4.00008C161.254 4.028 164.782 4.02339 168.309 4.00316C168.834 4.00008 169.024 4.15095 168.979 4.65659C168.919 5.32848 169.155 6.21962 168.794 6.61281C168.484 6.95144 167.515 6.74037 166.837 6.74319C164.742 6.75164 162.648 6.76829 160.554 6.73243C159.952 6.72193 159.81 6.91174 159.825 7.46041C159.862 8.82518 159.856 10.192 159.827 11.5573C159.817 12.0401 159.983 12.1748 160.471 12.171C162.962 12.1503 165.454 12.1615 167.945 12.1615H168.722Z" fill="#E84C57"/>
<path fill-rule="evenodd" clip-rule="evenodd" d="M88 18.1732C88.8572 18.1732 89.6249 18.1608 90.3915 18.1859C90.5127 18.1899 90.7133 18.3478 90.7341 18.462C91.0073 19.9541 92.0519 20.6337 93.3272 20.9984C95.0677 21.4962 96.7628 21.3389 98.1866 20.1158C98.658 19.7111 99.0184 19.0392 99.1852 18.4203C99.4784 17.3318 99.0132 16.364 97.964 16.0468C96.6815 15.6596 95.3295 15.517 94.0101 15.2538C93.2134 15.0951 92.41 14.9523 91.6305 14.7259C87.6368 13.5668 87.1721 8.70589 89.561 6.15443C90.7099 4.92737 92.1595 4.28567 93.7725 4.0857C96.1267 3.79368 98.3133 4.20156 100.054 6.0309C100.855 6.8731 101.28 7.90945 101.475 9.20528C100.624 9.20528 99.8548 9.22591 99.0881 9.18756C98.9363 9.17989 98.7342 8.97384 98.66 8.80958C98.2546 7.90998 97.5781 7.33626 96.6815 7.04292C95.1402 6.53929 93.6374 6.62473 92.2133 7.46243C91.1826 8.06868 90.7107 9.06192 90.8739 10.2279C91.0142 11.2312 91.6866 11.966 92.8618 12.2027C94.2475 12.482 95.6618 12.614 97.0457 12.9007C97.835 13.0647 98.6217 13.3372 99.3533 13.6858C102.697 15.2795 102.576 19.5616 100.635 21.6277C99.0135 23.3539 96.9942 24.0427 94.7088 23.998C92.6803 23.958 90.8767 23.2909 89.4269 21.7954C88.5015 20.8405 88.0003 19.6775 88 18.1732Z" fill="#E84C57"/>
<path fill-rule="evenodd" clip-rule="evenodd" d="M156 4.01711C155.54 5.17791 155.134 6.20907 154.723 7.23809C152.581 12.5991 150.429 17.956 148.307 23.3251C148.097 23.8562 147.821 24.0198 147.276 23.9981C145.675 23.9341 146.073 24.2357 145.489 22.7814C143.087 16.8009 140.701 10.8137 138.31 4.82892C138.221 4.60662 138.136 4.38217 138 4.03077C139.02 4.03077 139.944 4.00184 140.862 4.05863C141.019 4.06854 141.201 4.42556 141.292 4.65375C143.068 9.10464 144.832 13.5603 146.6 18.0147C146.698 18.2616 146.803 18.5056 146.972 18.9154C147.147 18.5472 147.276 18.3099 147.376 18.061C149.16 13.6107 150.951 9.16249 152.712 4.70304C152.915 4.18799 153.161 3.96354 153.727 4.00479C154.432 4.05622 155.144 4.01711 156 4.01711Z" fill="#E84C57"/>
<path fill-rule="evenodd" clip-rule="evenodd" d="M23 22.9551C22.7683 22.9674 22.5557 22.9881 22.3431 22.9884C19.4668 22.9904 16.5906 22.9789 13.7147 22.9999C13.1932 23.0037 12.9649 22.8893 13.0044 22.3323C13.0522 21.6582 13.0156 20.9783 13.0156 20.2477H16.5872V6.70385H13.0608V4H22.9987V6.67644C22.0067 6.67644 21.0127 6.69514 20.02 6.66774C19.5649 6.65544 19.4174 6.80065 19.419 7.25061C19.4331 11.4111 19.4268 15.5719 19.4292 19.7327C19.4292 19.8771 19.4574 20.0215 19.4778 20.2169H23V22.9551Z" fill="#231F20"/>
<path fill-rule="evenodd" clip-rule="evenodd" d="M50.0136 23H47.077V6.53033H41V4H56V6.4968H50.0136V23Z" fill="#231F20"/>
<path fill-rule="evenodd" clip-rule="evenodd" d="M33.9837 23H31.0717V6.51447H25V4H40V6.47379H33.9837V23Z" fill="#231F20"/>
<mask id="mask1" mask-type="alpha" maskUnits="userSpaceOnUse" x="0" y="4" width="12" height="20">
<path fill-rule="evenodd" clip-rule="evenodd" d="M0 4.04346H11.8077V23.7653H0V4.04346Z" fill="white"/>
</mask>
<g mask="url(#mask1)">
<path fill-rule="evenodd" clip-rule="evenodd" d="M-6.10352e-05 4.04346H2.73594V20.9157H11.8077V23.7653H-6.10352e-05V4.04346Z" fill="#231F20"/>
</g>
<path fill-rule="evenodd" clip-rule="evenodd" d="M59 23V4H61.7837V20.2801H71V23H59Z" fill="#231F20"/>
<path fill-rule="evenodd" clip-rule="evenodd" d="M171 23V22.2628C171 16.4582 171 10.6537 171 4.84902C171 4.00088 171.001 4.00063 171.912 4.00011C172.503 3.99986 173.094 4.00011 173.778 4.00011V4.88003C173.778 9.76713 173.79 14.654 173.763 19.5408C173.76 20.1813 173.92 20.3764 174.604 20.3654C177.14 20.3241 179.677 20.349 182.213 20.349H183V23H171Z" fill="#E84C57"/>
<path fill-rule="evenodd" clip-rule="evenodd" d="M202 1.2376C202.093 0.786503 202.168 0.424204 202.255 0C203.849 0.250159 205.372 0.489408 207 0.745148C206.927 1.16402 206.861 1.54357 206.782 2C205.169 1.74299 203.611 1.49461 202 1.2376Z" fill="#E84C57"/>
</svg>
