<svg width="46" height="22" viewBox="0 0 46 22" fill="none" xmlns="http://www.w3.org/2000/svg">
<path fill-rule="evenodd" clip-rule="evenodd" d="M0 16.5907C0.262923 16.1028 0.626292 15.9991 1.03516 16C4.71072 16.0084 8.38628 16.0062 12.0618 16.0112C12.2117 16.0115 12.4047 15.9795 12.5021 16.0931C12.6939 16.3165 12.9056 16.5995 12.9751 16.917C13.0687 17.3442 12.89 17.7217 12.5792 17.8699C12.398 17.9565 12.1949 17.9827 12.0015 17.9831C8.34115 17.9908 4.68066 17.985 1.02027 18C0.59832 18.0015 0.253387 17.8581 0 17.3645V16.5907Z" fill="white"/>
<mask id="mask0" mask-type="alpha" maskUnits="userSpaceOnUse" x="14" y="0" width="32" height="22">
<path fill-rule="evenodd" clip-rule="evenodd" d="M14.0069 0.0159187H45.9987V21.5864H14.0069V0.0159187Z" fill="white"/>
</mask>
<g mask="url(#mask0)">
<path fill-rule="evenodd" clip-rule="evenodd" d="M15.4909 1.8628C15.5613 1.92199 15.6276 1.98225 15.6984 2.03666C19.5503 4.99059 23.3981 7.95001 27.2569 10.8952C29.0252 12.2449 31.039 12.2222 32.81 10.8672C35.456 8.8427 38.1013 6.81717 40.7464 4.79137C42.0137 3.8207 43.2797 2.84841 44.5581 1.86775C44.3202 1.3727 43.8902 1.3861 43.4659 1.3861C35.7278 1.38619 27.9898 1.38592 20.2518 1.38646C18.9646 1.38655 17.6775 1.38835 16.3903 1.39357C16.0177 1.3951 15.6603 1.43998 15.4909 1.8628ZM44.6129 3.58046C44.4754 3.67409 44.3769 3.73444 44.2859 3.80415C40.8012 6.47187 37.3199 9.1441 33.8296 11.8045C33.4003 12.1317 32.9509 12.4572 32.4625 12.68C30.3115 13.6615 28.2814 13.3931 26.4159 11.972C22.9247 9.31247 19.4454 6.63764 15.9609 3.96973C15.8014 3.84759 15.6383 3.73021 15.4419 3.58468V18.0086C15.6294 17.8722 15.7648 17.7782 15.8954 17.6783C18.1956 15.9193 20.495 14.1593 22.7959 12.4011C22.9149 12.31 23.0388 12.2209 23.1719 12.1527C23.4912 11.9892 23.7679 12.0895 23.9799 12.3434C24.1987 12.6057 24.194 12.8988 23.9847 13.1676C23.8941 13.2839 23.7682 13.376 23.6492 13.4674C22.046 14.6978 20.4412 15.9259 18.837 17.1551C17.7145 18.015 16.5923 18.8753 15.4689 19.7364C15.7182 20.2395 16.1548 20.217 16.581 20.217C25.5339 20.2171 34.4869 20.2172 43.4398 20.2158C43.6208 20.2158 43.8167 20.2357 43.9789 20.1756C44.1942 20.0957 44.3832 19.9461 44.624 19.8022C44.4588 19.6642 44.3921 19.604 44.3209 19.5496C41.7336 17.5704 39.1454 15.5921 36.5587 13.612C36.3916 13.4841 36.2164 13.3592 36.0767 13.2049C35.8326 12.935 35.828 12.6184 36.0476 12.3425C36.266 12.0678 36.5728 11.9853 36.8978 12.1692C37.0934 12.2798 37.2722 12.4218 37.4512 12.5591C39.7259 14.3018 41.9989 16.0465 44.2734 17.7893C44.3724 17.8651 44.482 17.9272 44.6129 18.0128V3.58046ZM30.0459 21.5849C25.5471 21.5849 21.0485 21.5852 16.5498 21.5848C14.8619 21.5847 14.0069 20.7381 14.0069 19.0715C14.0072 13.7215 14.0069 8.3713 14.0072 3.02128C14.0072 2.78158 14.0069 2.5417 14.0119 2.302C14.0407 0.913089 14.9242 0.025705 16.3295 0.0215676C19.8436 0.0112241 23.3577 0.0182397 26.8718 0.0182397C32.461 0.0183296 38.0503 0.0171603 43.6396 0.0194089C44.8353 0.0198586 45.6777 0.621491 45.9399 1.66457C45.9901 1.8646 45.9959 2.0793 45.996 2.28734C45.9989 7.9671 45.9997 13.6469 45.9972 19.3267C45.9967 20.7 45.0806 21.5864 43.6782 21.5864C39.134 21.5864 34.5899 21.5864 30.0459 21.5864V21.5849Z" fill="white"/>
</g>
<path fill-rule="evenodd" clip-rule="evenodd" d="M9.01778 13.9972C7.67777 13.9976 6.33785 14.0016 4.99783 13.9932C4.80493 13.9921 4.55827 14.0254 4.43169 13.8771C4.23355 13.6448 3.99276 13.2651 4.00017 12.9592C4.0074 12.6578 4.27348 12.3186 4.4793 12.0966C4.60155 11.9649 4.82671 12.0063 5.0057 12.0059C7.65554 12.0012 10.3054 12.0026 12.9552 12.0028C13.0305 12.0028 13.1059 11.9992 13.181 12.0048C13.7285 12.0466 14.003 12.3816 14 13.0012C13.9968 13.6097 13.7049 13.9865 13.1733 13.9921C11.7882 14.0064 10.403 13.9969 9.01778 13.9972Z" fill="white"/>
<path fill-rule="evenodd" clip-rule="evenodd" d="M9.48576 9.99854C8.64127 9.99854 7.7966 10.0038 6.95219 9.99427C6.77647 9.9922 6.54972 10.0227 6.43706 9.88378C6.24299 9.64469 6.00964 9.29085 6.0002 8.97228C5.99192 8.69016 6.23969 8.3464 6.42521 8.11571C6.5287 7.987 6.7355 8.00561 6.89591 8.00496C8.62942 7.99811 10.363 7.99876 12.0965 8.00444C12.2424 8.00496 12.3922 8.03572 12.5334 8.08987C12.8454 8.20993 12.9995 8.52771 13 8.98947C13.0004 9.47927 12.8416 9.8503 12.5018 9.90872C12.0632 9.98406 11.6177 9.98161 11.1748 9.9913C10.612 10.0036 10.0487 9.99427 9.48576 9.99427V9.99854Z" fill="white"/>
<path fill-rule="evenodd" clip-rule="evenodd" d="M9.94909 6.9845C9.53897 6.9845 9.12808 7.00706 8.71881 6.97832C8.28135 6.9479 8.00978 6.56468 8.00024 6.02884C7.99036 5.47534 8.28501 5.03399 8.73056 5.02071C9.57899 4.99506 10.4281 4.99429 11.2766 5.01259C11.7203 5.02226 11.9843 5.39426 11.9992 5.94609C12.0156 6.55527 11.7804 6.93978 11.3066 6.98038C10.8555 7.01905 10.4017 6.98863 9.94918 6.98863C9.94918 6.98721 9.94909 6.98592 9.94909 6.9845Z" fill="white"/>
</svg>
