<svg width="40" height="34" viewBox="0 0 40 34" fill="none" xmlns="http://www.w3.org/2000/svg">
<path fill-rule="evenodd" clip-rule="evenodd" d="M20.0265 8.94043C21.5008 8.94043 22.8932 9.22141 24.2139 9.78344C26.8644 10.9116 28.706 12.8744 30.2293 15.3069C32.4999 18.9306 33.5618 23.4474 33.5517 27.1045C33.542 30.8204 32.333 33.06 30.3672 33.06H9.68589C7.70008 33.06 6.50099 30.8204 6.50099 27.0625C6.50099 25.3557 6.75635 23.4684 7.24792 21.4008C7.73949 19.3374 8.52923 17.3955 9.58733 15.5837C12.1268 11.2387 15.7211 8.94043 19.9871 8.94043H20.0265ZM30.3673 30.8792C30.6818 30.9965 31.318 29.6 31.3302 27.1045C31.3377 25.5906 31.1314 23.9004 30.6817 22.0298C30.2271 20.1426 29.5297 18.3684 28.5584 16.7245C27.7209 15.3027 26.7852 14.1536 25.3735 12.9876C23.9739 11.8343 22.0905 11.1213 20.0265 11.1213H19.9871C17.9228 11.1213 16.0452 11.8217 14.6398 12.9666C13.2537 14.0991 12.3122 15.2566 11.4944 16.6658C10.5431 18.3014 9.81635 20.0628 9.35165 21.9543C8.89236 23.8206 8.66341 25.5318 8.66341 27.0625C8.66341 29.6378 9.33191 30.9756 9.68589 30.8792H30.3673Z" fill="white"/>
<path fill-rule="evenodd" clip-rule="evenodd" d="M15.4065 17.9034C16.6844 16.6242 18.2177 15.9951 20.0265 15.9951C21.8153 15.9951 23.3486 16.6452 24.6265 17.9244C25.9044 19.1993 26.5533 20.7134 26.5533 22.5041C26.5533 24.2908 25.9044 25.8468 24.6265 27.1217C23.3486 28.4009 21.8154 29.03 20.0265 29.03C18.2177 29.03 16.6844 28.4009 15.4065 27.1217C14.1286 25.8468 13.4995 24.2908 13.4995 22.5041C13.4995 20.7134 14.1286 19.1825 15.4065 17.9034ZM20.0265 26.8659C21.2256 26.8659 22.2527 26.4381 23.0932 25.591C23.9433 24.7312 24.3711 23.7037 24.3711 22.5041C24.3711 21.3047 23.9387 20.2814 23.0932 19.4384C22.2477 18.5913 21.2256 18.1593 20.0265 18.1593C18.8271 18.1593 17.7853 18.5913 16.9398 19.4384C16.0947 20.2814 15.6816 21.3047 15.6816 22.5041C15.6816 23.7037 16.0897 24.7313 16.9398 25.591C17.7803 26.4381 18.8271 26.8659 20.0265 26.8659Z" fill="white"/>
<path fill-rule="evenodd" clip-rule="evenodd" d="M33.4141 2.29322C35.3945 3.03557 36.9723 4.02531 38.1718 5.26257C39.3709 6.49976 39.9999 7.89636 39.9999 9.4691V10.1192C39.9999 10.7692 39.9935 11.2767 39.9801 11.6919C39.9542 12.4971 39.6124 13.8183 38.899 14.5396C38.0199 15.433 36.638 15.7852 34.8099 15.5839C32.8635 15.37 31.5264 14.8374 30.7996 14.267C30.4255 13.9734 30.1461 13.5792 29.9541 13.1262C29.561 12.1943 29.561 11.5324 29.5611 10.3203V10.2743V9.94303C29.5611 9.58649 29.1639 9.24263 28.4207 8.87773C27.6701 8.51283 26.5335 8.18989 25.0199 7.93407C23.5058 7.68244 21.8153 7.54401 19.9477 7.54401C17.8246 7.54401 15.9001 7.72852 14.1877 8.09342C12.4795 8.45832 11.3371 8.89865 10.7671 9.46904C10.6098 9.62839 10.5309 9.78361 10.5309 9.94296V10.3917C10.5309 11.5912 10.4777 12.2454 10.0788 13.1639C9.53399 14.4264 8.17347 15.2022 5.28216 15.5839C5.04732 15.6132 4.73151 15.6216 4.31883 15.6216C2.8836 15.6216 1.80915 15.2441 1.09491 14.5018C0.747194 14.1411 0.465821 13.6966 0.288828 13.1262C0.111834 12.5558 0.0326187 12.0861 0.0137299 11.7086C-0.00679301 11.3186 -0.00221785 10.8069 0.0137299 10.1569C0.0152937 10.0929 0.0227751 9.9846 0.0307915 9.86859C0.0422072 9.70339 0.0547077 9.52248 0.0527495 9.43133C0.0171286 7.7412 0.666736 6.23133 2.01889 4.86832C3.53713 3.34172 5.83164 2.13388 8.91929 1.29087C12.0244 0.44368 15.5637 0.0117188 19.535 0.0117188C24.6265 0.0117188 29.4575 0.812764 33.4141 2.29322ZM37.346 13.0088C37.7238 12.6188 37.8178 11.671 37.8178 10.1569H37.8177V9.46917C37.8177 8.23198 37.1064 7.0744 35.9895 6.20629C34.8849 5.34649 33.7454 4.78028 32.392 4.2393C28.9488 2.87205 24.6658 2.17584 19.5349 2.17584C15.8979 2.17584 12.6564 2.55754 9.80366 3.31662C6.95556 4.07159 4.86902 5.08656 3.55216 6.40342C2.62824 7.3261 2.20046 8.32845 2.23484 9.43146C2.23758 9.51603 2.22574 9.68909 2.2144 9.85485C2.20494 9.99321 2.19582 10.1265 2.19582 10.199V10.9245C2.19582 11.0629 2.2021 11.453 2.2151 11.6123C2.26118 12.1617 2.39412 12.6902 2.66759 13.0089C3.02327 13.4199 3.80504 13.5289 5.04602 13.4199C6.6951 13.2731 7.52085 12.8872 7.93608 12.5182C8.07112 12.3966 8.14746 12.1994 8.21118 11.9478C8.34412 11.4152 8.34876 11.2013 8.34876 10.3918V9.94309C8.34876 9.25107 8.57563 8.57584 9.19425 7.9342C10.286 6.80603 12.4584 6.03433 14.797 5.73237C15.9772 5.58139 16.9405 5.4891 17.7063 5.43878C18.4739 5.38845 19.2204 5.3591 19.9477 5.3591C20.3608 5.3591 20.7735 5.3591 21.2256 5.38008C21.6777 5.40107 22.3256 5.44714 23.1326 5.51845C23.9378 5.58558 24.7041 5.68198 25.4129 5.79525C26.8468 6.01747 28.6326 6.49139 29.7578 7.11211C30.9129 7.74956 31.7433 8.74355 31.7433 9.94303V10.3163C31.7433 11.3984 31.7718 12.0736 31.979 12.3588C32.3816 12.9166 33.4146 13.2605 35.046 13.4198L35.0474 13.42C35.2051 13.4368 35.4398 13.4618 35.7338 13.4618C36.5004 13.4618 37.0553 13.3066 37.346 13.0088Z" fill="white"/>
</svg>
