<svg width="40" height="41" viewBox="0 0 40 41" fill="none" xmlns="http://www.w3.org/2000/svg">
<path d="M39.106 0.820424C38.5616 0.286982 37.8876 0 37.1141 0H11.1001C9.50668 0 8.21781 1.21892 8.21781 2.81233V8.29651H10.8662V2.81233C10.8662 2.64835 10.9361 2.57788 11.1001 2.57788H37.1142C37.2782 2.57788 37.3487 2.64835 37.3487 2.81233V21.5377C37.3487 21.7018 37.2782 21.7723 37.1142 21.7723H33.5754V24.3736H37.1142C37.8876 24.3736 38.5616 24.0867 39.106 23.5531C39.663 23.0082 39.95 22.3347 39.95 21.5377V2.81233C39.9499 2.0154 39.663 1.36542 39.106 0.820424Z" fill="white"/>
<path fill-rule="evenodd" clip-rule="evenodd" d="M2.85109 11.0386H28.8646C29.6615 11.0386 30.3411 11.3196 30.8799 11.882C31.4189 12.4445 31.7004 13.124 31.7004 13.9209V32.6234C31.7004 33.3968 31.425 34.0818 30.8799 34.6388C30.347 35.1837 29.6615 35.4587 28.8645 35.4587H23.4274V40.3569L14.6154 35.4587H2.85109C2.05409 35.4587 1.36861 35.1838 0.835165 34.6388C0.290173 34.0818 0.0151978 33.3968 0.0151978 32.6234V13.9209C0.0151978 13.1245 0.296177 12.4445 0.835165 11.8826C1.37415 11.3196 2.05415 11.0386 2.85109 11.0386ZM28.8645 32.8574C29.0286 32.8574 29.099 32.7873 29.099 32.6234H29.0991V13.9209C29.0991 13.7104 29.0286 13.6165 28.8646 13.6165H2.85109C2.68658 13.6165 2.61657 13.71 2.61657 13.9209V32.6234C2.61657 32.7873 2.68658 32.8574 2.85109 32.8574H14.6154H15.3189L15.9049 33.1624L20.8496 35.9511V35.4587V32.8574H23.4274H28.8645Z" fill="white"/>
<path d="M23.8729 24.8423H14.5219C13.7954 24.8423 13.2095 25.4283 13.2095 26.1547C13.2095 26.8812 13.7954 27.4437 14.5219 27.4437H23.8728C24.5993 27.4437 25.1618 26.8812 25.1618 26.1547C25.1618 25.4283 24.5993 24.8423 23.8729 24.8423Z" fill="white"/>
<path d="M23.8729 19.1006H7.8428C7.11634 19.1006 6.55386 19.6631 6.55386 20.3895C6.55386 21.116 7.11634 21.6785 7.8428 21.6785H23.8729C24.5994 21.6785 25.1618 21.116 25.1618 20.3895C25.1618 19.6631 24.5993 19.1006 23.8729 19.1006Z" fill="white"/>
</svg>
